<mxfile host="app.diagrams.net" agent="Mozilla/5.0 (Windows NT 10.0; Win64; x64) AppleWebKit/537.36 (KHTML, like Gecko) Chrome/128.0.0.0 Safari/537.36" version="24.7.14">
  <diagram name="Page-1" id="fqHSzhl4hH6lYN27eTka">
    <mxGraphModel dx="1235" dy="654" grid="1" gridSize="10" guides="1" tooltips="1" connect="1" arrows="1" fold="1" page="1" pageScale="1" pageWidth="850" pageHeight="1100" math="0" shadow="0">
      <root>
        <mxCell id="0" />
        <mxCell id="1" parent="0" />
        <mxCell id="5JF84OMa9MNEpwDzS7vF-1" value="APPLICANT" style="swimlane;horizontal=0;whiteSpace=wrap;html=1;" vertex="1" parent="1">
          <mxGeometry x="71" y="110" width="4269" height="300" as="geometry" />
        </mxCell>
        <mxCell id="5JF84OMa9MNEpwDzS7vF-2" value="&lt;u&gt;&lt;b&gt;APPLICATION DETAILS&lt;/b&gt;&lt;/u&gt;&lt;div style=&quot;text-align: left;&quot;&gt;&lt;ul&gt;&lt;li&gt;ENTER MOTHER PARCEL NUMBER&lt;/li&gt;&lt;li&gt;PLUPA/DC/17 (PPA2) Reference Number&lt;/li&gt;&lt;li&gt;&lt;label style=&quot;color: rgba(0, 0, 0, 0.87); font-family: Roboto, &amp;quot;Helvetica Neue&amp;quot;, sans-serif; font-size: 14px; background-color: rgb(255, 255, 255);&quot;&gt;Date of issuance of PLUPA/DC/17 (PPA2)&lt;/label&gt;&lt;span style=&quot;color: rgb(220, 53, 69); font-family: Roboto, &amp;quot;Helvetica Neue&amp;quot;, sans-serif; font-size: 14px; background-color: rgb(255, 255, 255);&quot; class=&quot;required&quot; aria-required=&quot;true&quot;&gt;&amp;nbsp;&lt;/span&gt;&lt;/li&gt;&lt;li&gt;&lt;span style=&quot;color: rgb(220, 53, 69); font-family: Roboto, &amp;quot;Helvetica Neue&amp;quot;, sans-serif; font-size: 14px; background-color: rgb(255, 255, 255);&quot; class=&quot;required&quot; aria-required=&quot;true&quot;&gt;&lt;span style=&quot;color: rgba(0, 0, 0, 0.87);&quot;&gt;Land status&lt;/span&gt;&lt;/span&gt;&lt;/li&gt;&lt;li&gt;&lt;span style=&quot;color: rgb(220, 53, 69); font-family: Roboto, &amp;quot;Helvetica Neue&amp;quot;, sans-serif; font-size: 14px; background-color: rgb(255, 255, 255);&quot; class=&quot;required&quot; aria-required=&quot;true&quot;&gt;&lt;span style=&quot;color: rgba(0, 0, 0, 0.87);&quot;&gt;Additional information&lt;/span&gt;&lt;/span&gt;&lt;/li&gt;&lt;/ul&gt;&lt;/div&gt;&lt;div style=&quot;text-align: left;&quot;&gt;&lt;span style=&quot;color: rgb(220, 53, 69); font-family: Roboto, &amp;quot;Helvetica Neue&amp;quot;, sans-serif; font-size: 14px; background-color: rgb(255, 255, 255);&quot; class=&quot;required&quot; aria-required=&quot;true&quot;&gt;&lt;br&gt;&lt;/span&gt;&lt;/div&gt;" style="whiteSpace=wrap;html=1;" vertex="1" parent="5JF84OMa9MNEpwDzS7vF-1">
          <mxGeometry x="129" y="46" width="341" height="170" as="geometry" />
        </mxCell>
        <mxCell id="5JF84OMa9MNEpwDzS7vF-3" value="&lt;u&gt;&lt;font style=&quot;font-size: 15px;&quot;&gt;&lt;b&gt;documents to upload&lt;/b&gt;&lt;/font&gt;&lt;/u&gt;&lt;div style=&quot;text-align: left;&quot;&gt;&lt;ul&gt;&lt;li&gt;&lt;span style=&quot;color: rgba(0, 0, 0, 0.87); font-family: Roboto, &amp;quot;Helvetica Neue&amp;quot;, sans-serif; font-size: 14px; background-color: rgb(255, 255, 255);&quot;&gt;PLUPA/DC/17 (PPA2)&lt;/span&gt;&lt;/li&gt;&lt;li&gt;&lt;span style=&quot;color: rgba(0, 0, 0, 0.87); font-family: Roboto, &amp;quot;Helvetica Neue&amp;quot;, sans-serif; font-size: 14px; background-color: rgb(255, 255, 255);&quot;&gt;Planning Brief&lt;/span&gt;&lt;/li&gt;&lt;li&gt;&lt;span style=&quot;color: rgba(0, 0, 0, 0.87); font-family: Roboto, &amp;quot;Helvetica Neue&amp;quot;, sans-serif; font-size: 14px; background-color: rgb(255, 255, 255);&quot;&gt;Certificate of Lease/ Title&lt;/span&gt;&lt;br&gt;&lt;/li&gt;&lt;li&gt;&lt;span style=&quot;color: rgba(0, 0, 0, 0.87); font-family: Roboto, &amp;quot;Helvetica Neue&amp;quot;, sans-serif; font-size: 14px; background-color: rgb(255, 255, 255);&quot;&gt;Scheme plan(PDF)&lt;br&gt;&lt;/span&gt;&lt;/li&gt;&lt;li&gt;&lt;span style=&quot;color: rgba(0, 0, 0, 0.87); font-family: Roboto, &amp;quot;Helvetica Neue&amp;quot;, sans-serif; font-size: 14px; background-color: rgb(255, 255, 255);&quot;&gt;Scheme plan(shape file)(optional)&lt;br&gt;&lt;/span&gt;&lt;/li&gt;&lt;/ul&gt;&lt;/div&gt;" style="shape=document;whiteSpace=wrap;html=1;boundedLbl=1;" vertex="1" parent="5JF84OMa9MNEpwDzS7vF-1">
          <mxGeometry x="590" y="50" width="259" height="175" as="geometry" />
        </mxCell>
        <mxCell id="5JF84OMa9MNEpwDzS7vF-4" style="edgeStyle=orthogonalEdgeStyle;rounded=0;orthogonalLoop=1;jettySize=auto;html=1;entryX=0.014;entryY=0.465;entryDx=0;entryDy=0;entryPerimeter=0;" edge="1" parent="5JF84OMa9MNEpwDzS7vF-1" source="5JF84OMa9MNEpwDzS7vF-2" target="5JF84OMa9MNEpwDzS7vF-3">
          <mxGeometry relative="1" as="geometry" />
        </mxCell>
        <mxCell id="5JF84OMa9MNEpwDzS7vF-5" value="SUBMIT APPLICATION" style="text;html=1;align=center;verticalAlign=middle;resizable=0;points=[];autosize=1;strokeColor=none;fillColor=none;" vertex="1" parent="5JF84OMa9MNEpwDzS7vF-1">
          <mxGeometry x="1153" y="190" width="150" height="30" as="geometry" />
        </mxCell>
        <mxCell id="5JF84OMa9MNEpwDzS7vF-6" value="DOWNLOAD PROVISIONAL APPROVAL DOCUMENT" style="shape=document;whiteSpace=wrap;html=1;boundedLbl=1;" vertex="1" parent="5JF84OMa9MNEpwDzS7vF-1">
          <mxGeometry x="2949" y="76" width="153" height="110" as="geometry" />
        </mxCell>
        <mxCell id="5JF84OMa9MNEpwDzS7vF-7" value="" style="edgeStyle=orthogonalEdgeStyle;rounded=0;orthogonalLoop=1;jettySize=auto;html=1;" edge="1" parent="5JF84OMa9MNEpwDzS7vF-1" source="5JF84OMa9MNEpwDzS7vF-8" target="5JF84OMa9MNEpwDzS7vF-2">
          <mxGeometry relative="1" as="geometry" />
        </mxCell>
        <mxCell id="5JF84OMa9MNEpwDzS7vF-8" value="START" style="ellipse;whiteSpace=wrap;html=1;" vertex="1" parent="5JF84OMa9MNEpwDzS7vF-1">
          <mxGeometry x="29" y="115" width="61" height="38" as="geometry" />
        </mxCell>
        <mxCell id="5JF84OMa9MNEpwDzS7vF-9" value="" style="edgeStyle=orthogonalEdgeStyle;rounded=0;orthogonalLoop=1;jettySize=auto;html=1;" edge="1" parent="5JF84OMa9MNEpwDzS7vF-1" source="5JF84OMa9MNEpwDzS7vF-10" target="5JF84OMa9MNEpwDzS7vF-12">
          <mxGeometry relative="1" as="geometry" />
        </mxCell>
        <mxCell id="5JF84OMa9MNEpwDzS7vF-10" value="PAYS INVOICE" style="rhombus;whiteSpace=wrap;html=1;" vertex="1" parent="5JF84OMa9MNEpwDzS7vF-1">
          <mxGeometry x="1548" y="130" width="80" height="80" as="geometry" />
        </mxCell>
        <mxCell id="5JF84OMa9MNEpwDzS7vF-11" value="TRUE" style="text;html=1;align=center;verticalAlign=middle;resizable=0;points=[];autosize=1;strokeColor=none;fillColor=none;" vertex="1" parent="5JF84OMa9MNEpwDzS7vF-1">
          <mxGeometry x="1671" y="154" width="60" height="30" as="geometry" />
        </mxCell>
        <mxCell id="5JF84OMa9MNEpwDzS7vF-12" value="" style="points=[[0.145,0.145,0],[0.5,0,0],[0.855,0.145,0],[1,0.5,0],[0.855,0.855,0],[0.5,1,0],[0.145,0.855,0],[0,0.5,0]];shape=mxgraph.bpmn.event;html=1;verticalLabelPosition=bottom;labelBackgroundColor=#ffffff;verticalAlign=top;align=center;perimeter=ellipsePerimeter;outlineConnect=0;aspect=fixed;outline=end;symbol=terminate2;" vertex="1" parent="5JF84OMa9MNEpwDzS7vF-1">
          <mxGeometry x="1563" y="10" width="50" height="50" as="geometry" />
        </mxCell>
        <mxCell id="5JF84OMa9MNEpwDzS7vF-13" value="&lt;ul&gt;&lt;li&gt;ENTER DATE OF ISSUANSE OF RECOMMENDATION LETER&lt;/li&gt;&lt;li&gt;RECOMMENDATION LETER REFRENCE NUMBER&lt;/li&gt;&lt;li&gt;&lt;br&gt;&lt;/li&gt;&lt;li&gt;&lt;span style=&quot;background-color: initial;&quot;&gt;ATTACH RECOMMENDATION LETTER&lt;/span&gt;&lt;br&gt;&lt;/li&gt;&lt;/ul&gt;" style="whiteSpace=wrap;html=1;align=left;" vertex="1" parent="5JF84OMa9MNEpwDzS7vF-1">
          <mxGeometry x="3435" y="64" width="291" height="130" as="geometry" />
        </mxCell>
        <mxCell id="5JF84OMa9MNEpwDzS7vF-14" value="RESUBMIT APPLICATION" style="text;html=1;align=center;verticalAlign=middle;resizable=0;points=[];autosize=1;strokeColor=none;fillColor=none;" vertex="1" parent="5JF84OMa9MNEpwDzS7vF-1">
          <mxGeometry x="3569" y="225" width="170" height="30" as="geometry" />
        </mxCell>
        <mxCell id="5JF84OMa9MNEpwDzS7vF-15" value="" style="edgeStyle=orthogonalEdgeStyle;rounded=0;orthogonalLoop=1;jettySize=auto;html=1;" edge="1" parent="5JF84OMa9MNEpwDzS7vF-1" source="5JF84OMa9MNEpwDzS7vF-16" target="5JF84OMa9MNEpwDzS7vF-17">
          <mxGeometry relative="1" as="geometry" />
        </mxCell>
        <mxCell id="5JF84OMa9MNEpwDzS7vF-16" value="PAY APPROVAL FEES?" style="rhombus;whiteSpace=wrap;html=1;" vertex="1" parent="5JF84OMa9MNEpwDzS7vF-1">
          <mxGeometry x="3856" y="114" width="80" height="80" as="geometry" />
        </mxCell>
        <mxCell id="5JF84OMa9MNEpwDzS7vF-17" value="" style="points=[[0.145,0.145,0],[0.5,0,0],[0.855,0.145,0],[1,0.5,0],[0.855,0.855,0],[0.5,1,0],[0.145,0.855,0],[0,0.5,0]];shape=mxgraph.bpmn.event;html=1;verticalLabelPosition=bottom;labelBackgroundColor=#ffffff;verticalAlign=top;align=center;perimeter=ellipsePerimeter;outlineConnect=0;aspect=fixed;outline=end;symbol=terminate2;" vertex="1" parent="5JF84OMa9MNEpwDzS7vF-1">
          <mxGeometry x="3871" y="10" width="50" height="50" as="geometry" />
        </mxCell>
        <mxCell id="5JF84OMa9MNEpwDzS7vF-18" value="" style="points=[[0.145,0.145,0],[0.5,0,0],[0.855,0.145,0],[1,0.5,0],[0.855,0.855,0],[0.5,1,0],[0.145,0.855,0],[0,0.5,0]];shape=mxgraph.bpmn.event;html=1;verticalLabelPosition=bottom;labelBackgroundColor=#ffffff;verticalAlign=top;align=center;perimeter=ellipsePerimeter;outlineConnect=0;aspect=fixed;outline=end;symbol=terminate2;" vertex="1" parent="5JF84OMa9MNEpwDzS7vF-1">
          <mxGeometry x="4065" y="240" width="50" height="50" as="geometry" />
        </mxCell>
        <mxCell id="5JF84OMa9MNEpwDzS7vF-19" value="SYSTEM" style="swimlane;horizontal=0;whiteSpace=wrap;html=1;" vertex="1" parent="1">
          <mxGeometry x="72" y="410" width="4269" height="290" as="geometry" />
        </mxCell>
        <mxCell id="5JF84OMa9MNEpwDzS7vF-20" value="IS APPLICANT THE PROPREITOR?" style="rhombus;whiteSpace=wrap;html=1;" vertex="1" parent="5JF84OMa9MNEpwDzS7vF-19">
          <mxGeometry x="639" y="50" width="160" height="140" as="geometry" />
        </mxCell>
        <mxCell id="5JF84OMa9MNEpwDzS7vF-21" value="" style="endArrow=none;dashed=1;html=1;dashPattern=1 3;strokeWidth=2;rounded=0;exitX=1;exitY=0.5;exitDx=0;exitDy=0;" edge="1" parent="5JF84OMa9MNEpwDzS7vF-19" source="5JF84OMa9MNEpwDzS7vF-27">
          <mxGeometry width="50" height="50" relative="1" as="geometry">
            <mxPoint x="1034" y="502" as="sourcePoint" />
            <mxPoint x="1019" y="130" as="targetPoint" />
            <Array as="points">
              <mxPoint x="1019" y="400" />
            </Array>
          </mxGeometry>
        </mxCell>
        <mxCell id="5JF84OMa9MNEpwDzS7vF-22" value="GENERATE PHYSICAL PLANNING INVOICE" style="whiteSpace=wrap;html=1;" vertex="1" parent="5JF84OMa9MNEpwDzS7vF-19">
          <mxGeometry x="1493" y="75" width="190" height="80" as="geometry" />
        </mxCell>
        <mxCell id="5JF84OMa9MNEpwDzS7vF-23" value="GENERATE APPROVAL FEES" style="whiteSpace=wrap;html=1;" vertex="1" parent="5JF84OMa9MNEpwDzS7vF-19">
          <mxGeometry x="3825" y="115" width="141" height="65" as="geometry" />
        </mxCell>
        <mxCell id="5JF84OMa9MNEpwDzS7vF-24" style="edgeStyle=orthogonalEdgeStyle;rounded=0;orthogonalLoop=1;jettySize=auto;html=1;entryX=0.5;entryY=0;entryDx=0;entryDy=0;exitX=0.5;exitY=0.871;exitDx=0;exitDy=0;exitPerimeter=0;" edge="1" parent="1" source="5JF84OMa9MNEpwDzS7vF-3" target="5JF84OMa9MNEpwDzS7vF-20">
          <mxGeometry relative="1" as="geometry" />
        </mxCell>
        <mxCell id="5JF84OMa9MNEpwDzS7vF-25" value="APPLICATION CREATION" style="text;html=1;align=center;verticalAlign=middle;resizable=0;points=[];autosize=1;strokeColor=none;fillColor=none;" vertex="1" parent="1">
          <mxGeometry x="725" y="348" width="170" height="30" as="geometry" />
        </mxCell>
        <mxCell id="5JF84OMa9MNEpwDzS7vF-26" value="PROPREITORS" style="swimlane;horizontal=0;whiteSpace=wrap;html=1;startSize=23;" vertex="1" parent="1">
          <mxGeometry x="71" y="701" width="4269" height="209" as="geometry" />
        </mxCell>
        <mxCell id="5JF84OMa9MNEpwDzS7vF-27" value="VERIFYS WITH OTP" style="whiteSpace=wrap;html=1;" vertex="1" parent="5JF84OMa9MNEpwDzS7vF-26">
          <mxGeometry x="650" y="70" width="140" height="70" as="geometry" />
        </mxCell>
        <mxCell id="5JF84OMa9MNEpwDzS7vF-28" style="edgeStyle=orthogonalEdgeStyle;rounded=0;orthogonalLoop=1;jettySize=auto;html=1;entryX=0.5;entryY=0;entryDx=0;entryDy=0;" edge="1" parent="1" source="5JF84OMa9MNEpwDzS7vF-60" target="5JF84OMa9MNEpwDzS7vF-27">
          <mxGeometry relative="1" as="geometry" />
        </mxCell>
        <mxCell id="5JF84OMa9MNEpwDzS7vF-29" value="LAO" style="swimlane;horizontal=0;whiteSpace=wrap;html=1;" vertex="1" parent="1">
          <mxGeometry x="71" y="913" width="4269" height="327" as="geometry" />
        </mxCell>
        <mxCell id="5JF84OMa9MNEpwDzS7vF-30" style="edgeStyle=orthogonalEdgeStyle;rounded=0;orthogonalLoop=1;jettySize=auto;html=1;exitX=1;exitY=0.5;exitDx=0;exitDy=0;" edge="1" parent="5JF84OMa9MNEpwDzS7vF-29" source="5JF84OMa9MNEpwDzS7vF-31" target="5JF84OMa9MNEpwDzS7vF-32">
          <mxGeometry relative="1" as="geometry">
            <mxPoint x="1530" y="110" as="sourcePoint" />
          </mxGeometry>
        </mxCell>
        <mxCell id="5JF84OMa9MNEpwDzS7vF-31" value="&lt;u&gt;LAO ACTIONS&lt;/u&gt;&lt;div style=&quot;text-align: left;&quot;&gt;&lt;ul&gt;&lt;li&gt;REQUEST FOR COMMENTS FROM SURVEY DEPARTMENT&lt;/li&gt;&lt;/ul&gt;&lt;/div&gt;" style="whiteSpace=wrap;html=1;" vertex="1" parent="5JF84OMa9MNEpwDzS7vF-29">
          <mxGeometry x="1111" y="50" width="219" height="80" as="geometry" />
        </mxCell>
        <mxCell id="5JF84OMa9MNEpwDzS7vF-32" value="&lt;ul style=&quot;text-align: left;&quot;&gt;&lt;li&gt;REQUEST FOR COMMENTS FROM PHYSICAL PLANNING&lt;/li&gt;&lt;/ul&gt;" style="whiteSpace=wrap;html=1;" vertex="1" parent="5JF84OMa9MNEpwDzS7vF-29">
          <mxGeometry x="1494" y="55" width="190" height="70" as="geometry" />
        </mxCell>
        <mxCell id="5JF84OMa9MNEpwDzS7vF-33" value="&lt;u&gt;LAO ACTIONS&lt;/u&gt;&lt;div style=&quot;text-align: left;&quot;&gt;&lt;ul&gt;&lt;li&gt;RECEIVES COMMENTS FROM BOTH PHYSICAL PLANNING AND SURVEY&lt;/li&gt;&lt;li&gt;GO FOR FIELDWORK AND UPLOAD FIELDWORK&lt;/li&gt;&lt;li&gt;ADD APPROVAL COMMENTS&lt;/li&gt;&lt;/ul&gt;&lt;/div&gt;" style="whiteSpace=wrap;html=1;" vertex="1" parent="5JF84OMa9MNEpwDzS7vF-29">
          <mxGeometry x="2220" y="30" width="320" height="120" as="geometry" />
        </mxCell>
        <mxCell id="5JF84OMa9MNEpwDzS7vF-34" value="" style="endArrow=classic;html=1;rounded=0;" edge="1" parent="5JF84OMa9MNEpwDzS7vF-29">
          <mxGeometry width="50" height="50" relative="1" as="geometry">
            <mxPoint x="2300" y="187" as="sourcePoint" />
            <mxPoint x="2300" y="150" as="targetPoint" />
          </mxGeometry>
        </mxCell>
        <mxCell id="5JF84OMa9MNEpwDzS7vF-35" value="" style="endArrow=classic;html=1;rounded=0;" edge="1" parent="5JF84OMa9MNEpwDzS7vF-29">
          <mxGeometry width="50" height="50" relative="1" as="geometry">
            <mxPoint x="2380" y="190" as="sourcePoint" />
            <mxPoint x="2380" y="150" as="targetPoint" />
          </mxGeometry>
        </mxCell>
        <mxCell id="5JF84OMa9MNEpwDzS7vF-36" style="edgeStyle=orthogonalEdgeStyle;rounded=0;orthogonalLoop=1;jettySize=auto;html=1;entryX=0.5;entryY=0;entryDx=0;entryDy=0;" edge="1" parent="1" source="5JF84OMa9MNEpwDzS7vF-37" target="5JF84OMa9MNEpwDzS7vF-31">
          <mxGeometry relative="1" as="geometry">
            <mxPoint x="1510" y="1070" as="targetPoint" />
          </mxGeometry>
        </mxCell>
        <mxCell id="5JF84OMa9MNEpwDzS7vF-37" value="SUBMITS APPLICATION" style="whiteSpace=wrap;html=1;" vertex="1" parent="1">
          <mxGeometry x="1015" y="180" width="150" height="60" as="geometry" />
        </mxCell>
        <mxCell id="5JF84OMa9MNEpwDzS7vF-38" style="edgeStyle=orthogonalEdgeStyle;rounded=0;orthogonalLoop=1;jettySize=auto;html=1;exitX=1;exitY=0.5;exitDx=0;exitDy=0;" edge="1" parent="1" source="5JF84OMa9MNEpwDzS7vF-20" target="5JF84OMa9MNEpwDzS7vF-37">
          <mxGeometry relative="1" as="geometry">
            <mxPoint x="855" y="670" as="sourcePoint" />
          </mxGeometry>
        </mxCell>
        <mxCell id="5JF84OMa9MNEpwDzS7vF-39" value="TRUE" style="edgeLabel;html=1;align=center;verticalAlign=middle;resizable=0;points=[];" vertex="1" connectable="0" parent="5JF84OMa9MNEpwDzS7vF-38">
          <mxGeometry x="-0.7295" y="3" relative="1" as="geometry">
            <mxPoint y="3" as="offset" />
          </mxGeometry>
        </mxCell>
        <mxCell id="5JF84OMa9MNEpwDzS7vF-40" value="PHYSICAL PLANNING" style="swimlane;horizontal=0;whiteSpace=wrap;html=1;" vertex="1" parent="1">
          <mxGeometry x="72" y="1243" width="4268" height="267" as="geometry" />
        </mxCell>
        <mxCell id="5JF84OMa9MNEpwDzS7vF-41" value="APPLICATION RECIEVED FOR COMMENTS" style="whiteSpace=wrap;html=1;" vertex="1" parent="5JF84OMa9MNEpwDzS7vF-40">
          <mxGeometry x="1758" y="87" width="190" height="60" as="geometry" />
        </mxCell>
        <mxCell id="5JF84OMa9MNEpwDzS7vF-42" value="FORWARD COMMENTS" style="text;html=1;align=center;verticalAlign=middle;resizable=0;points=[];autosize=1;strokeColor=none;fillColor=none;" vertex="1" parent="5JF84OMa9MNEpwDzS7vF-40">
          <mxGeometry x="1984" y="28" width="160" height="30" as="geometry" />
        </mxCell>
        <mxCell id="5JF84OMa9MNEpwDzS7vF-43" style="edgeStyle=orthogonalEdgeStyle;rounded=0;orthogonalLoop=1;jettySize=auto;html=1;entryX=0.5;entryY=1;entryDx=0;entryDy=0;exitX=0.5;exitY=0;exitDx=0;exitDy=0;" edge="1" parent="1" source="5JF84OMa9MNEpwDzS7vF-22" target="5JF84OMa9MNEpwDzS7vF-10">
          <mxGeometry relative="1" as="geometry" />
        </mxCell>
        <mxCell id="5JF84OMa9MNEpwDzS7vF-44" style="edgeStyle=orthogonalEdgeStyle;rounded=0;orthogonalLoop=1;jettySize=auto;html=1;entryX=0.5;entryY=0;entryDx=0;entryDy=0;" edge="1" parent="1" source="5JF84OMa9MNEpwDzS7vF-10" target="5JF84OMa9MNEpwDzS7vF-41">
          <mxGeometry relative="1" as="geometry">
            <mxPoint x="2130" y="1414" as="targetPoint" />
          </mxGeometry>
        </mxCell>
        <mxCell id="5JF84OMa9MNEpwDzS7vF-45" value="FALSE" style="edgeLabel;html=1;align=center;verticalAlign=middle;resizable=0;points=[];" vertex="1" connectable="0" parent="5JF84OMa9MNEpwDzS7vF-44">
          <mxGeometry x="-0.8755" y="-5" relative="1" as="geometry">
            <mxPoint x="-131" y="-77" as="offset" />
          </mxGeometry>
        </mxCell>
        <mxCell id="5JF84OMa9MNEpwDzS7vF-46" value="SURVEY DEPARTMENT" style="swimlane;horizontal=0;whiteSpace=wrap;html=1;" vertex="1" parent="1">
          <mxGeometry x="72" y="1513" width="4268" height="277" as="geometry" />
        </mxCell>
        <mxCell id="5JF84OMa9MNEpwDzS7vF-47" value="APPLICATION RECIEVED FOR COMMENTS" style="whiteSpace=wrap;html=1;" vertex="1" parent="5JF84OMa9MNEpwDzS7vF-46">
          <mxGeometry x="1124.5" y="70" width="190" height="60" as="geometry" />
        </mxCell>
        <mxCell id="5JF84OMa9MNEpwDzS7vF-48" value="" style="endArrow=classic;html=1;rounded=0;" edge="1" parent="5JF84OMa9MNEpwDzS7vF-46">
          <mxGeometry width="50" height="50" relative="1" as="geometry">
            <mxPoint x="1698" y="100" as="sourcePoint" />
            <mxPoint x="1778" y="100" as="targetPoint" />
          </mxGeometry>
        </mxCell>
        <mxCell id="5JF84OMa9MNEpwDzS7vF-49" style="edgeStyle=orthogonalEdgeStyle;rounded=0;orthogonalLoop=1;jettySize=auto;html=1;entryX=0.5;entryY=0;entryDx=0;entryDy=0;exitX=0.5;exitY=1;exitDx=0;exitDy=0;" edge="1" parent="1" source="5JF84OMa9MNEpwDzS7vF-31" target="5JF84OMa9MNEpwDzS7vF-47">
          <mxGeometry relative="1" as="geometry" />
        </mxCell>
        <mxCell id="5JF84OMa9MNEpwDzS7vF-50" value="VALIDATOR" style="swimlane;horizontal=0;whiteSpace=wrap;html=1;" vertex="1" parent="1">
          <mxGeometry x="71" y="1793" width="4269" height="287" as="geometry" />
        </mxCell>
        <mxCell id="5JF84OMa9MNEpwDzS7vF-51" value="VALIDATES AND APROVES APPLICATION" style="whiteSpace=wrap;html=1;" vertex="1" parent="5JF84OMa9MNEpwDzS7vF-50">
          <mxGeometry x="3476" y="117" width="210" height="60" as="geometry" />
        </mxCell>
        <mxCell id="5JF84OMa9MNEpwDzS7vF-52" style="edgeStyle=orthogonalEdgeStyle;rounded=0;orthogonalLoop=1;jettySize=auto;html=1;entryX=0.5;entryY=0;entryDx=0;entryDy=0;" edge="1" parent="1" source="5JF84OMa9MNEpwDzS7vF-53" target="5JF84OMa9MNEpwDzS7vF-56">
          <mxGeometry relative="1" as="geometry" />
        </mxCell>
        <mxCell id="5JF84OMa9MNEpwDzS7vF-53" value="VALIDATE APPLICATION DETAILS&lt;div&gt;EDIT APPROVAL CONDITIONS&amp;nbsp;&lt;br&gt;&lt;br&gt;&lt;/div&gt;" style="whiteSpace=wrap;html=1;" vertex="1" parent="1">
          <mxGeometry x="2680" y="1960" width="210" height="70" as="geometry" />
        </mxCell>
        <mxCell id="5JF84OMa9MNEpwDzS7vF-54" style="edgeStyle=orthogonalEdgeStyle;rounded=0;orthogonalLoop=1;jettySize=auto;html=1;entryX=0.5;entryY=0;entryDx=0;entryDy=0;exitX=1;exitY=0.5;exitDx=0;exitDy=0;" edge="1" parent="1" source="5JF84OMa9MNEpwDzS7vF-33" target="5JF84OMa9MNEpwDzS7vF-53">
          <mxGeometry relative="1" as="geometry">
            <mxPoint x="2120" y="1110" as="sourcePoint" />
          </mxGeometry>
        </mxCell>
        <mxCell id="5JF84OMa9MNEpwDzS7vF-55" value="DIRECTOR OF LAND ADMIN" style="swimlane;horizontal=0;whiteSpace=wrap;html=1;" vertex="1" parent="1">
          <mxGeometry x="71" y="2083" width="4269" height="257" as="geometry" />
        </mxCell>
        <mxCell id="5JF84OMa9MNEpwDzS7vF-56" value="PREVIEW APPROVAL LETTER&lt;br&gt;APPROVE APPPLICATION FIRST TIME" style="whiteSpace=wrap;html=1;" vertex="1" parent="5JF84OMa9MNEpwDzS7vF-55">
          <mxGeometry x="2600" y="100" width="230" height="70" as="geometry" />
        </mxCell>
        <mxCell id="5JF84OMa9MNEpwDzS7vF-57" value="VALIDATES AND APROVES APPLICATION" style="whiteSpace=wrap;html=1;" vertex="1" parent="5JF84OMa9MNEpwDzS7vF-55">
          <mxGeometry x="3492" y="127" width="210" height="60" as="geometry" />
        </mxCell>
        <mxCell id="5JF84OMa9MNEpwDzS7vF-58" style="edgeStyle=orthogonalEdgeStyle;rounded=0;orthogonalLoop=1;jettySize=auto;html=1;entryX=0.512;entryY=0.9;entryDx=0;entryDy=0;entryPerimeter=0;" edge="1" parent="1" source="5JF84OMa9MNEpwDzS7vF-56" target="5JF84OMa9MNEpwDzS7vF-6">
          <mxGeometry relative="1" as="geometry">
            <mxPoint x="3111.04" y="560.98" as="targetPoint" />
          </mxGeometry>
        </mxCell>
        <mxCell id="5JF84OMa9MNEpwDzS7vF-59" value="" style="edgeStyle=orthogonalEdgeStyle;rounded=0;orthogonalLoop=1;jettySize=auto;html=1;entryX=0.5;entryY=0;entryDx=0;entryDy=0;" edge="1" parent="1" source="5JF84OMa9MNEpwDzS7vF-20" target="5JF84OMa9MNEpwDzS7vF-60">
          <mxGeometry relative="1" as="geometry">
            <mxPoint x="790" y="600" as="sourcePoint" />
            <mxPoint x="790" y="880" as="targetPoint" />
          </mxGeometry>
        </mxCell>
        <mxCell id="5JF84OMa9MNEpwDzS7vF-60" value="FALSE" style="text;html=1;align=center;verticalAlign=middle;resizable=0;points=[];autosize=1;strokeColor=none;fillColor=none;" vertex="1" parent="1">
          <mxGeometry x="760" y="643" width="60" height="30" as="geometry" />
        </mxCell>
        <mxCell id="5JF84OMa9MNEpwDzS7vF-61" value="" style="endArrow=classic;html=1;rounded=0;" edge="1" parent="1">
          <mxGeometry width="50" height="50" relative="1" as="geometry">
            <mxPoint x="1090" y="590" as="sourcePoint" />
            <mxPoint x="1090" y="530" as="targetPoint" />
            <Array as="points">
              <mxPoint x="1090" y="590" />
            </Array>
          </mxGeometry>
        </mxCell>
        <mxCell id="5JF84OMa9MNEpwDzS7vF-62" value="" style="edgeStyle=orthogonalEdgeStyle;rounded=0;orthogonalLoop=1;jettySize=auto;html=1;entryX=0.5;entryY=1;entryDx=0;entryDy=0;" edge="1" parent="1" source="5JF84OMa9MNEpwDzS7vF-32" target="5JF84OMa9MNEpwDzS7vF-22">
          <mxGeometry relative="1" as="geometry">
            <mxPoint x="1659" y="990" as="targetPoint" />
          </mxGeometry>
        </mxCell>
        <mxCell id="5JF84OMa9MNEpwDzS7vF-63" value="" style="endArrow=none;dashed=1;html=1;rounded=0;exitX=1;exitY=0.5;exitDx=0;exitDy=0;entryX=0.5;entryY=1;entryDx=0;entryDy=0;" edge="1" parent="1" source="5JF84OMa9MNEpwDzS7vF-47" target="5JF84OMa9MNEpwDzS7vF-33">
          <mxGeometry width="50" height="50" relative="1" as="geometry">
            <mxPoint x="1590" y="1680" as="sourcePoint" />
            <mxPoint x="1640" y="1630" as="targetPoint" />
            <Array as="points">
              <mxPoint x="2450" y="1613" />
            </Array>
          </mxGeometry>
        </mxCell>
        <mxCell id="5JF84OMa9MNEpwDzS7vF-64" value="" style="endArrow=none;dashed=1;html=1;rounded=0;exitX=1;exitY=0.5;exitDx=0;exitDy=0;entryX=0.25;entryY=1;entryDx=0;entryDy=0;" edge="1" parent="1" source="5JF84OMa9MNEpwDzS7vF-41" target="5JF84OMa9MNEpwDzS7vF-33">
          <mxGeometry width="50" height="50" relative="1" as="geometry">
            <mxPoint x="2160" y="1400" as="sourcePoint" />
            <mxPoint x="2210" y="1350" as="targetPoint" />
            <Array as="points">
              <mxPoint x="2370" y="1360" />
            </Array>
          </mxGeometry>
        </mxCell>
        <mxCell id="5JF84OMa9MNEpwDzS7vF-65" value="" style="endArrow=classic;html=1;rounded=0;" edge="1" parent="1">
          <mxGeometry width="50" height="50" relative="1" as="geometry">
            <mxPoint x="2150" y="1360" as="sourcePoint" />
            <mxPoint x="2220" y="1360" as="targetPoint" />
          </mxGeometry>
        </mxCell>
        <mxCell id="5JF84OMa9MNEpwDzS7vF-66" style="edgeStyle=orthogonalEdgeStyle;rounded=0;orthogonalLoop=1;jettySize=auto;html=1;entryX=0;entryY=0.5;entryDx=0;entryDy=0;" edge="1" parent="1" source="5JF84OMa9MNEpwDzS7vF-67" target="5JF84OMa9MNEpwDzS7vF-13">
          <mxGeometry relative="1" as="geometry" />
        </mxCell>
        <mxCell id="5JF84OMa9MNEpwDzS7vF-67" value="DO A SURVEY PROCESS" style="whiteSpace=wrap;html=1;" vertex="1" parent="1">
          <mxGeometry x="3277" y="210" width="120" height="60" as="geometry" />
        </mxCell>
        <mxCell id="5JF84OMa9MNEpwDzS7vF-68" style="edgeStyle=orthogonalEdgeStyle;rounded=0;orthogonalLoop=1;jettySize=auto;html=1;entryX=0;entryY=0.5;entryDx=0;entryDy=0;" edge="1" parent="1" source="5JF84OMa9MNEpwDzS7vF-6" target="5JF84OMa9MNEpwDzS7vF-67">
          <mxGeometry relative="1" as="geometry">
            <mxPoint x="3270" y="240" as="targetPoint" />
          </mxGeometry>
        </mxCell>
        <mxCell id="5JF84OMa9MNEpwDzS7vF-69" style="edgeStyle=orthogonalEdgeStyle;rounded=0;orthogonalLoop=1;jettySize=auto;html=1;entryX=0.5;entryY=0;entryDx=0;entryDy=0;" edge="1" parent="1" source="5JF84OMa9MNEpwDzS7vF-70" target="5JF84OMa9MNEpwDzS7vF-51">
          <mxGeometry relative="1" as="geometry" />
        </mxCell>
        <mxCell id="5JF84OMa9MNEpwDzS7vF-70" value="VALIDATES AND APROVES APPLICATION" style="whiteSpace=wrap;html=1;" vertex="1" parent="1">
          <mxGeometry x="3546" y="990" width="210" height="60" as="geometry" />
        </mxCell>
        <mxCell id="5JF84OMa9MNEpwDzS7vF-71" style="edgeStyle=orthogonalEdgeStyle;rounded=0;orthogonalLoop=1;jettySize=auto;html=1;entryX=0.5;entryY=0;entryDx=0;entryDy=0;" edge="1" parent="1" source="5JF84OMa9MNEpwDzS7vF-13" target="5JF84OMa9MNEpwDzS7vF-70">
          <mxGeometry relative="1" as="geometry" />
        </mxCell>
        <mxCell id="5JF84OMa9MNEpwDzS7vF-72" style="edgeStyle=orthogonalEdgeStyle;rounded=0;orthogonalLoop=1;jettySize=auto;html=1;entryX=0.427;entryY=0.014;entryDx=0;entryDy=0;entryPerimeter=0;" edge="1" parent="1" source="5JF84OMa9MNEpwDzS7vF-51" target="5JF84OMa9MNEpwDzS7vF-57">
          <mxGeometry relative="1" as="geometry" />
        </mxCell>
        <mxCell id="5JF84OMa9MNEpwDzS7vF-73" style="edgeStyle=orthogonalEdgeStyle;rounded=0;orthogonalLoop=1;jettySize=auto;html=1;entryX=0.5;entryY=1;entryDx=0;entryDy=0;" edge="1" parent="1" source="5JF84OMa9MNEpwDzS7vF-57" target="5JF84OMa9MNEpwDzS7vF-23">
          <mxGeometry relative="1" as="geometry">
            <mxPoint x="3930" y="590" as="targetPoint" />
          </mxGeometry>
        </mxCell>
        <mxCell id="5JF84OMa9MNEpwDzS7vF-74" style="edgeStyle=orthogonalEdgeStyle;rounded=0;orthogonalLoop=1;jettySize=auto;html=1;entryX=0.5;entryY=1;entryDx=0;entryDy=0;" edge="1" parent="1" source="5JF84OMa9MNEpwDzS7vF-23" target="5JF84OMa9MNEpwDzS7vF-16">
          <mxGeometry relative="1" as="geometry" />
        </mxCell>
        <mxCell id="5JF84OMa9MNEpwDzS7vF-75" value="FALSE" style="text;html=1;align=center;verticalAlign=middle;resizable=0;points=[];autosize=1;strokeColor=none;fillColor=none;" vertex="1" parent="1">
          <mxGeometry x="3890" y="178" width="60" height="30" as="geometry" />
        </mxCell>
        <mxCell id="5JF84OMa9MNEpwDzS7vF-76" value="" style="edgeStyle=orthogonalEdgeStyle;rounded=0;orthogonalLoop=1;jettySize=auto;html=1;" edge="1" parent="1" source="5JF84OMa9MNEpwDzS7vF-77" target="5JF84OMa9MNEpwDzS7vF-18">
          <mxGeometry relative="1" as="geometry" />
        </mxCell>
        <mxCell id="5JF84OMa9MNEpwDzS7vF-77" value="DOWNLOAD APPROVAL LETTER" style="shape=document;whiteSpace=wrap;html=1;boundedLbl=1;" vertex="1" parent="1">
          <mxGeometry x="4100" y="224" width="120" height="80" as="geometry" />
        </mxCell>
        <mxCell id="5JF84OMa9MNEpwDzS7vF-78" style="edgeStyle=orthogonalEdgeStyle;rounded=0;orthogonalLoop=1;jettySize=auto;html=1;entryX=0;entryY=0.5;entryDx=0;entryDy=0;" edge="1" parent="1" source="5JF84OMa9MNEpwDzS7vF-16" target="5JF84OMa9MNEpwDzS7vF-77">
          <mxGeometry relative="1" as="geometry" />
        </mxCell>
        <mxCell id="5JF84OMa9MNEpwDzS7vF-79" value="END" style="text;html=1;align=center;verticalAlign=middle;resizable=0;points=[];autosize=1;strokeColor=none;fillColor=none;" vertex="1" parent="1">
          <mxGeometry x="4179" y="358" width="50" height="30" as="geometry" />
        </mxCell>
      </root>
    </mxGraphModel>
  </diagram>
</mxfile>
